#!OML:ASF F:\VICON\USERDATA\INSTALL\Justin_Nancy\Justin_Nancy.ASF
:FULLY-SPECIFIED
:DEGREES
253
root 10.421 17.5827 4.72234 0.120363 -53.1551 5.88439
lowerback 5.89903 -0.607405 -1.62897
upperback -0.640118 -0.847535 2.24584
thorax -3.91512 -0.364774 3.32023
lowerneck -13.4346 -7.30876 -11.95
upperneck 23.2908 -9.64247 7.70721
head 10.669 -4.71565 3.41099
rclavicle -3.13086e-014 -2.62396e-014
rhumerus -29.6516 -4.08301 -84.627
rradius 35.1278
rwrist 4.27414
rhand -12.9863 12.196
rfingers 7.12502
rthumb 13.1064 -17.3721
lclavicle -3.13086e-014 -2.62396e-014
lhumerus -35.1858 18.301 79.4924
lradius 23.9874
lwrist -13.8731
lhand -17.717 25.8038
lfingers 7.12502
lthumb 8.54346 55.6109
rfemur -7.61152 -1.81751 32.2908
rtibia 3.80654
rfoot -0.643496 -0.802908
rtoes 15.9573
lfemur -17.6526 4.59841 -16.7281
ltibia 63.9108
lfoot 12.5387 -12.255
ltoes 2.23262
254
root 10.3697 17.5546 4.82866 0.997636 -55.3972 4.29232
lowerback 6.39138 -0.48027 -0.407199
upperback -0.568632 -0.580477 2.52614
thorax -4.14566 -0.25606 2.90469
lowerneck -13.5075 -7.15257 -11.8551
upperneck 23.4282 -9.38709 7.46109
head 10.686 -4.61969 3.34434
rclavicle -4.56211e-014 8.74653e-015
rhumerus -29.41 -3.50492 -84.782
rradius 35.1538
rwrist 4.82218
rhand -12.8001 12.8652
rfingers 7.12502
rthumb 13.2859 -16.6913
lclavicle -4.56211e-014 8.74653e-015
lhumerus -35.6376 19.2356 79.1981
lradius 24.0351
lwrist -14.4452
lhand -17.6168 25.7991
lfingers 7.12502
lthumb 8.64012 55.6023
rfemur -7.30268 -0.959022 33.3071
rtibia 5.24099
rfoot -1.70246 0.131828
rtoes 16.2164
lfemur -17.6123 5.47104 -15.6
ltibia 64.7801
lfoot 9.83488 -11.6562
ltoes -12.0237
255
root 10.2849 17.62 4.9111 0.872324 -56.9574 4.33914
lowerback 6.84152 -0.436598 -0.56027
upperback -0.787938 -0.521757 2.65166
thorax -4.62918 -0.215364 3.12699
lowerneck -13.5739 -6.9711 -11.9966
upperneck 23.918 -9.14492 7.47709
head 10.8606 -4.52799 3.41285
rclavicle -8.15017e-015 2.8625e-014
rhumerus -29.614 -2.55737 -84.9405
rradius 35.4868
rwrist 4.30351
rhand -12.4073 13.2143
rfingers 7.12502
rthumb 13.6645 -16.3171
lclavicle -8.15017e-015 2.8625e-014
lhumerus -36.3285 19.7496 79.0645
lradius 24.1813
lwrist -14.3757
lhand -18.1519 25.7116
lfingers 7.12502
lthumb 8.12373 55.5355
rfemur -7.19478 -0.726269 33.2392
rtibia 6.47819
rfoot -2.80288 1.22296
rtoes 16.5508
lfemur -18.8481 4.07607 -15.0489
ltibia 65.6715
lfoot 11.4353 -7.32361
ltoes 1.92891
256
root 10.2195 17.5852 4.98643 0.303892 -58.9455 5.07062
lowerback 6.89287 -0.0962394 -1.01556
upperback -0.851136 -0.107545 2.55383
thorax -4.74786 0.00325248 3.23935
lowerneck -13.9019 -6.89948 -12.4247
upperneck 24.4315 -9.09661 8.01829
head 11.1615 -4.48446 3.6876
rclavicle 3.3197e-014 1.59028e-015
rhumerus -29.5489 -1.94943 -85.2325
rradius 35.9208
rwrist 3.42743
rhand -12.209 12.9992
rfingers 7.12502
rthumb 13.8556 -16.5192
lclavicle 3.3197e-014 1.59028e-015
lhumerus -36.531 19.6189 79.203
lradius 24.236
lwrist -13.7308
lhand -18.4811 25.6116
lfingers 7.12502
lthumb 7.80596 55.4475
rfemur -6.43334 -0.0328454 32.8301
rtibia 6.064
rfoot -3.00376 2.39175
rtoes 17.7922
lfemur -19.0862 4.77185 -15.5168
ltibia 66.2202
lfoot 9.05129 -6.9081
ltoes -8.97749
257
root 10.1396 17.5904 5.04274 0.26325 -62.1237 5.3931
lowerback 6.52977 0.542178 -1.39027
upperback -0.739236 0.708099 2.45042
thorax -4.48128 0.412067 3.25419
lowerneck -14.3447 -6.84445 -12.5153
upperneck 24.7328 -9.07514 8.39569
head 11.3838 -4.43341 3.84044
rclavicle 4.87022e-015 5.56597e-015
rhumerus -28.8114 -2.05623 -85.7585
rradius 35.806
rwrist 3.63361
rhand -12.093 13.0358
rfingers 7.12502
rthumb 13.9673 -16.4751
lclavicle 4.87022e-015 5.56597e-015
lhumerus -36.3798 19.5052 79.2072
lradius 24.168
lwrist -13.2534
lhand -18.3265 25.6721
lfingers 7.12502
lthumb 7.95526 55.5024
rfemur -6.02305 1.87272 32.7308
rtibia 6.07848
rfoot -3.20414 3.19068
rtoes 19.9674
lfemur -19.7299 5.81849 -15.3585
ltibia 66.699
lfoot 8.19725 -4.75203
ltoes -6.61017
258
root 10.0651 17.616 5.12783 0.326967 -63.6194 5.21352
lowerback 6.48558 0.546875 -0.944679
upperback -0.567414 0.740823 2.31666
thorax -4.27128 0.411503 2.85893
lowerneck -14.6288 -6.74109 -12.094
upperneck 24.8909 -8.98951 8.28515
head 11.4595 -4.36374 3.73851
rclavicle -1.08338e-014 3.57812e-014
rhumerus -28.0926 -2.38368 -86.3006
rradius 35.5812
rwrist 4.26789
rhand -11.8608 13.3964
rfingers 7.12502
rthumb 14.1911 -16.0989
lclavicle -1.08338e-014 3.57812e-014
lhumerus -36.2602 19.4716 79.1646
lradius 24.0676
lwrist -13.0644
lhand -17.9963 25.7311
lfingers 7.12502
lthumb 8.27386 55.549
rfemur -6.42447 2.03386 32.7834
rtibia 8.11602
rfoot -4.4991 3.7529
rtoes 24.3479
lfemur -20.3594 4.91666 -14.9472
ltibia 66.9405
lfoot 7.77244 -3.56335
ltoes -4.09966
259
root 9.98392 17.6345 5.21404 -0.857097 -65.3308 6.5222
lowerback 6.39189 0.680589 -1.30322
upperback -0.566548 0.887808 2.1975
thorax -4.22971 0.491637 2.92285
lowerneck -14.5527 -6.5329 -11.9408
upperneck 24.9093 -8.68921 8.07768
head 11.3956 -4.2429 3.68563
rclavicle -2.69353e-014 2.38542e-015
rhumerus -27.8352 -2.34855 -86.3054
rradius 35.4756
rwrist 4.90271
rhand -11.5096 14.1426
rfingers 7.12502
rthumb 14.5296 -15.3286
lclavicle -2.69353e-014 2.38542e-015
lhumerus -36.6766 19.5324 79.3878
lradius 24.2708
lwrist -12.4397
lhand -18.5961 25.0985
lfingers 7.12502
lthumb 7.695 54.9385
rfemur -5.80664 2.43858 32.1025
rtibia 8.10729
rfoot -4.82433 4.77017
rtoes 24.8293
lfemur -20.7365 4.42852 -15.3936
ltibia 66.9874
lfoot 6.94292 -2.23231
ltoes -3.27607
260
root 9.89591 17.6476 5.29798 -3.59496 -66.7379 9.56176
lowerback 6.23314 0.680518 -2.43279
upperback -0.644947 0.799167 2.01448
thorax -4.23053 0.474344 3.3805
lowerneck -14.3603 -6.27114 -12.4281
upperneck 25.043 -8.26704 8.20311
head 11.388 -4.0953 3.88772
rclavicle 5.36719e-015 -3.18055e-014
rhumerus -27.6424 -2.45421 -86.107
rradius 35.2632
rwrist 6.19373
rhand -11.2016 14.7782
rfingers 7.12502
rthumb 14.8262 -14.6714
lclavicle 5.36719e-015 -3.18055e-014
lhumerus -37.477 19.6812 79.6605
lradius 24.904
lwrist -11.3721
lhand -18.8095 25.4577
lfingers 7.12502
lthumb 7.48907 55.3052
rfemur -5.2469 2.60299 30.7555
rtibia 8.01758
rfoot -5.30349 5.68482
rtoes 22.7304
lfemur -21.1136 3.70257 -16.6394
ltibia 66.8777
lfoot 6.10621 -0.603584
ltoes -1.24363
261
root 9.82719 17.6459 5.39125 -2.52473 -68.5047 8.15872
lowerback 6.49272 0.699785 -1.43516
upperback -0.588682 0.90047 2.13003
thorax -4.3114 0.501439 2.92522
lowerneck -14.2259 -6.13962 -12.4889
upperneck 25.0736 -8.08134 8.16536
head 11.3508 -4.02931 3.91602
rclavicle 2.25621e-014 -7.15625e-015
rhumerus -27.162 -2.66558 -86.4117
rradius 35.0554
rwrist 6.62916
rhand -11.5401 14.4064
rfingers 7.12502
rthumb 14.5002 -15.0669
lclavicle 2.25621e-014 -7.15625e-015
lhumerus -37.8724 19.8884 79.5748
lradius 25.304
lwrist -10.6995
lhand -17.947 25.8419
lfingers 7.12502
lthumb 8.32145 55.658
rfemur -4.73121 3.01586 31.458
rtibia 8.35705
rfoot -5.85441 6.31601
rtoes 24.0099
lfemur -21.5202 3.35484 -15.6365
ltibia 66.9667
lfoot 5.05542 -0.184348
ltoes -1.18769
262
root 9.75743 17.6373 5.47194 -1.74459 -70.2034 7.33126
lowerback 6.38986 0.924925 -0.528047
upperback -0.404395 1.25907 1.9233
thorax -4.05857 0.652209 2.16366
lowerneck -14.0854 -6.41927 -11.8794
upperneck 24.7556 -8.54544 7.84826
head 11.2128 -4.21773 3.6198
rclavicle -3.73715e-014 3.97569e-015
rhumerus -26.6185 -2.88487 -87.016
rradius 35.2974
rwrist 5.71654
rhand -11.9966 13.6835
rfingers 7.12502
rthumb 14.0602 -15.8209
lclavicle -3.73715e-014 3.97569e-015
lhumerus -37.3145 19.3667 79.5365
lradius 25.3235
lwrist -10.0231
lhand -17.4505 26.0651
lfingers 7.12502
lthumb 8.80065 55.8616
rfemur -4.43415 3.41749 31.8284
rtibia 8.5897
rfoot -6.36013 6.96961
rtoes 23.1323
lfemur -22.206 3.10097 -14.9767
ltibia 67.0219
lfoot 3.90002 0.0974333
ltoes -1.142
263
root 9.67929 17.6294 5.53762 -1.6201 -71.9175 7.42731
lowerback 5.84974 1.24899 0.0194728
upperback -0.104263 1.70769 1.49673
thorax -3.4329 0.856984 1.38367
lowerneck -14.2207 -6.72227 -10.9682
upperneck 24.4061 -9.10492 7.63531
head 11.1119 -4.40249 3.29408
rclavicle -1.58034e-014 -7.95139e-016
rhumerus -25.7655 -3.78581 -87.5825
rradius 35.301
rwrist 5.56425
rhand -11.6081 13.6939
rfingers 7.12502
rthumb 14.4346 -15.7842
lclavicle -1.58034e-014 -7.95139e-016
lhumerus -36.1261 17.9887 79.6905
lradius 25.1256
lwrist -8.87562
lhand -16.4136 26.6016
lfingers 7.12502
lthumb 9.80115 56.3535
rfemur -4.21415 3.89137 31.8443
rtibia 8.58316
rfoot -6.63952 7.83949
rtoes 18.7201
lfemur -23.0899 3.04017 -14.7043
ltibia 67.0405
lfoot 2.84927 0.541666
ltoes 0.734091
